# xmcd
#
# Track frame offsets:
#	150
#	10023
#	29226
#	57224
#	83799
#	106247
#	127798
#	148992
#	187268
#	214432
#	237224
#	256556
#	277609
#	297136
#
# Disc length: 4398 seconds
#
# Revision: 0
# Processed by: cddbd v1.5.2PL0 Copyright (c) Steve Scherf et al.
# Submitted via: dBpowerAMP V4.0
#
DISCID=c5112c0e
DTITLE=Mary Stokes Band - Clouds In My Heart
DYEAR=1900
DGENRE=Blues
TTITLE0=Mola Di Bari
TTITLE1=Feel So Bad
TTITLE2=Alabama Train
TTITLE3=Clouds In My Heart
TTITLE4=Through With You
TTITLE5=Sixteen - Twenty
TTITLE6=Same Thing
TTITLE7=I Wish You Would
TTITLE8=Everybody Knows
TTITLE9=Big Road Blues
TTITLE10=The Last Time
TTITLE11=I'm So Glad
TTITLE12=That Ain't It
TTITLE13=Long Gone Blues
EXTD=
EXTT0=
EXTT1=
EXTT2=
EXTT3=
EXTT4=
EXTT5=
EXTT6=
EXTT7=
EXTT8=
EXTT9=
EXTT10=
EXTT11=
EXTT12=
EXTT13=
PLAYORDER=
